<svg width="24" height="24" viewBox="0 0 24 24" fill="none" xmlns="http://www.w3.org/2000/svg">
<path d="M5.99996 3C6.99999 6 6.49999 8.5 3.99997 11.5C3.62649 11.9482 3.34228 12.4298 3.13234 12.9316C1.93697 15.7887 3.14935 19.2988 3.99996 21M18 3C17 6 17.5 8.5 20 11.5C20.3617 11.9341 20.6397 12.3996 20.8476 12.8844C22.0764 15.7499 20.8553 19.2894 20 21M21.2919 14.5C21.2919 17.1234 19.1653 19.25 16.5419 19.25C14.4039 19.25 12.5958 17.8375 12 15.8947C11.4041 17.8375 9.59603 19.25 7.45803 19.25C4.83468 19.25 2.70803 17.1234 2.70803 14.5" stroke="#26272B" stroke-width="1.5" stroke-linecap="round" stroke-linejoin="round"/>
</svg>
